<svg width="34" height="34" viewBox="0 0 34 34" fill="none" xmlns="http://www.w3.org/2000/svg">
<path d="M6.5 21.8359H5C4.20435 21.8359 3.44129 21.5199 2.87868 20.9573C2.31607 20.3946 2 19.6316 2 18.8359V5.33594C2 4.54029 2.31607 3.77723 2.87868 3.21462C3.44129 2.65201 4.20435 2.33594 5 2.33594H18.5C19.2956 2.33594 20.0587 2.65201 20.6213 3.21462C21.1839 3.77723 21.5 4.54029 21.5 5.33594V6.83594M15.5 12.8359H29C30.6569 12.8359 32 14.1791 32 15.8359V29.3359C32 30.9928 30.6569 32.3359 29 32.3359H15.5C13.8431 32.3359 12.5 30.9928 12.5 29.3359V15.8359C12.5 14.1791 13.8431 12.8359 15.5 12.8359Z" stroke="#94A3B8" stroke-width="3" stroke-linecap="round" stroke-linejoin="round"/>
</svg>
