<svg width="240" height="253" viewBox="0 0 240 253" fill="none" xmlns="http://www.w3.org/2000/svg">
<g clip-path="url(#clip0_374_200)">
<rect y="66.8555" width="175.98" height="200.911" rx="14.665" transform="rotate(-22.3277 0 66.8555)" fill="#212121"/>
<path d="M10.4766 80.7845C8.01502 74.7908 10.8783 67.9365 16.872 65.475L149.814 10.8763C155.808 8.41477 162.662 11.2781 165.124 17.2717L220.558 152.249L65.9109 215.762L10.4766 80.7845Z" fill="url(#paint0_linear_374_200)"/>
<g clip-path="url(#clip1_374_200)">
<rect x="77.8379" y="225.503" width="11.4456" height="11.4456" rx="2.54347" transform="rotate(-22.3277 77.8379 225.503)" fill="#FD8A06"/>
<path d="M100.086 221.384L100.317 222.66L101.213 222.292L101.491 222.971L100.453 223.397L100.697 224.763L99.9581 225.067L99.714 223.7L98.3846 224.246L98.6286 225.613L97.8893 225.916L97.6453 224.55L96.594 224.982L96.3154 224.304L97.5092 223.813L97.2782 222.537L96.2337 222.966L95.9551 222.288L97.1421 221.8L96.8996 220.457L97.6389 220.153L97.8814 221.496L99.2108 220.95L98.9684 219.607L99.7077 219.304L99.9502 220.647L100.852 220.276L101.131 220.955L100.086 221.384ZM99.347 221.687L98.0175 222.233L98.2485 223.51L99.5779 222.964L99.347 221.687ZM102.093 221.423C101.903 220.962 101.84 220.505 101.902 220.051C101.969 219.596 102.143 219.191 102.426 218.837C102.711 218.477 103.073 218.207 103.512 218.027C104.014 217.821 104.51 217.762 105.001 217.851C105.495 217.934 105.923 218.165 106.285 218.545L105.356 218.926C105.131 218.728 104.886 218.612 104.619 218.579C104.351 218.546 104.075 218.588 103.79 218.705C103.478 218.833 103.229 219.017 103.042 219.258C102.856 219.498 102.746 219.778 102.714 220.098C102.686 220.416 102.743 220.749 102.886 221.098C103.029 221.446 103.223 221.723 103.466 221.93C103.714 222.134 103.99 222.259 104.293 222.303C104.595 222.343 104.902 222.299 105.214 222.171C105.499 222.054 105.725 221.89 105.892 221.679C106.058 221.467 106.152 221.212 106.172 220.914L107.101 220.532C107.11 221.057 106.969 221.522 106.675 221.927C106.387 222.331 105.992 222.636 105.49 222.842C105.047 223.024 104.6 223.089 104.15 223.036C103.698 222.978 103.289 222.811 102.921 222.534C102.558 222.255 102.282 221.885 102.093 221.423ZM107.425 219.035C107.104 218.253 106.984 217.589 107.067 217.042C107.151 216.49 107.517 216.081 108.164 215.815C108.81 215.549 109.356 215.584 109.8 215.92C110.247 216.249 110.631 216.805 110.952 217.587C111.277 218.378 111.398 219.052 111.315 219.61C111.235 220.16 110.872 220.569 110.225 220.834C109.578 221.1 109.031 221.066 108.582 220.732C108.136 220.392 107.75 219.827 107.425 219.035ZM110.193 217.899C110.042 217.533 109.89 217.233 109.736 217C109.587 216.766 109.408 216.599 109.198 216.5C108.986 216.397 108.738 216.403 108.453 216.52C108.169 216.637 107.987 216.807 107.909 217.029C107.83 217.247 107.817 217.493 107.871 217.766C107.93 218.038 108.035 218.357 108.185 218.723C108.341 219.103 108.494 219.413 108.646 219.652C108.797 219.891 108.977 220.06 109.187 220.159C109.401 220.256 109.65 220.246 109.935 220.129C110.22 220.012 110.403 219.845 110.482 219.627C110.566 219.407 110.578 219.159 110.518 218.883C110.457 218.607 110.349 218.279 110.193 217.899ZM111.684 217.484C111.495 217.023 111.431 216.566 111.493 216.112C111.56 215.657 111.734 215.252 112.017 214.898C112.302 214.538 112.664 214.268 113.103 214.088C113.605 213.881 114.102 213.823 114.593 213.912C115.086 213.995 115.514 214.226 115.876 214.605L114.947 214.987C114.723 214.789 114.477 214.673 114.21 214.64C113.943 214.607 113.667 214.649 113.382 214.766C113.07 214.894 112.82 215.078 112.634 215.319C112.447 215.559 112.338 215.839 112.305 216.159C112.277 216.477 112.335 216.81 112.478 217.158C112.621 217.507 112.814 217.784 113.057 217.991C113.305 218.195 113.581 218.32 113.885 218.364C114.186 218.404 114.493 218.36 114.805 218.232C115.09 218.115 115.316 217.951 115.483 217.74C115.65 217.528 115.743 217.273 115.763 216.974L116.692 216.593C116.702 217.117 116.56 217.583 116.267 217.988C115.978 218.392 115.583 218.697 115.081 218.903C114.638 219.085 114.191 219.15 113.741 219.097C113.29 219.039 112.88 218.872 112.513 218.595C112.15 218.316 111.874 217.946 111.684 217.484ZM117.017 215.096C116.695 214.314 116.576 213.65 116.658 213.103C116.743 212.551 117.108 212.141 117.755 211.876C118.402 211.61 118.947 211.645 119.391 211.981C119.838 212.31 120.222 212.865 120.544 213.648C120.869 214.439 120.99 215.113 120.907 215.671C120.826 216.221 120.463 216.63 119.816 216.895C119.17 217.161 118.622 217.127 118.173 216.793C117.727 216.453 117.342 215.888 117.017 215.096ZM119.784 213.96C119.633 213.593 119.481 213.294 119.328 213.061C119.178 212.826 118.999 212.66 118.789 212.561C118.578 212.458 118.33 212.464 118.045 212.581C117.76 212.698 117.578 212.868 117.501 213.09C117.421 213.308 117.408 213.554 117.462 213.827C117.521 214.099 117.626 214.418 117.776 214.784C117.932 215.164 118.086 215.474 118.237 215.713C118.388 215.952 118.568 216.121 118.778 216.22C118.992 216.317 119.242 216.307 119.527 216.19C119.811 216.073 119.994 215.905 120.073 215.688C120.158 215.468 120.169 215.22 120.109 214.944C120.048 214.668 119.94 214.34 119.784 213.96ZM124.952 213.676L122.978 214.487L123.034 215.589L122.227 215.921L121.977 210.506L122.873 210.139L126.5 214.166L125.686 214.5L124.952 213.676ZM124.476 213.135L122.809 211.259L122.936 213.767L124.476 213.135ZM129.681 211.734L127.707 212.545L127.764 213.647L126.957 213.979L126.707 208.564L127.602 208.196L131.23 212.224L130.416 212.558L129.681 211.734ZM129.205 211.192L127.539 209.316L127.665 211.825L129.205 211.192Z" fill="#F8FAFC"/>
<path d="M134.846 209.308L134.552 209.429C134.396 209.493 134.221 209.492 134.065 209.427C133.91 209.362 133.786 209.238 133.722 209.082L132.635 206.435C132.571 206.279 132.572 206.104 132.637 205.949C132.702 205.793 132.826 205.67 132.982 205.606L135.629 204.519C135.785 204.454 135.96 204.455 136.115 204.52C136.271 204.585 136.394 204.709 136.458 204.865L136.579 205.159M135.886 206.819L138.533 205.732C138.858 205.598 139.229 205.754 139.363 206.078L140.45 208.725C140.583 209.05 140.428 209.422 140.103 209.555L137.456 210.642C137.131 210.775 136.76 210.62 136.626 210.295L135.539 207.649C135.406 207.324 135.561 206.952 135.886 206.819Z" stroke="#94A3B8" stroke-width="0.635867" stroke-linecap="round" stroke-linejoin="round"/>
</g>
<g clip-path="url(#clip2_374_200)">
<rect x="154.708" y="194.15" width="11.4456" height="11.4456" rx="2.54347" transform="rotate(-22.3277 154.708 194.15)" fill="#F05F7A"/>
<path d="M179.768 188.876L179.999 190.152L180.894 189.785L181.172 190.463L180.135 190.889L180.379 192.255L179.639 192.559L179.395 191.193L178.066 191.739L178.31 193.105L177.571 193.409L177.327 192.042L176.275 192.474L175.997 191.796L177.191 191.306L176.96 190.029L175.915 190.458L175.636 189.78L176.823 189.292L176.581 187.949L177.32 187.646L177.563 188.989L178.892 188.443L178.65 187.1L179.389 186.796L179.631 188.139L180.534 187.769L180.812 188.447L179.768 188.876ZM179.028 189.179L177.699 189.725L177.93 191.002L179.259 190.456L179.028 189.179ZM182.898 189.992C183.178 189.438 183.393 188.991 183.543 188.649C183.696 188.301 183.802 187.961 183.862 187.63C183.922 187.299 183.898 187.003 183.79 186.74C183.678 186.469 183.526 186.283 183.331 186.184C183.142 186.082 182.909 186.088 182.633 186.201C182.366 186.31 182.193 186.482 182.115 186.715C182.039 186.942 182.055 187.199 182.163 187.488L181.417 187.794C181.219 187.273 181.211 186.817 181.393 186.425C181.578 186.026 181.899 185.733 182.356 185.546C182.849 185.343 183.289 185.321 183.676 185.479C184.068 185.635 184.357 185.939 184.542 186.392C184.676 186.717 184.722 187.066 184.679 187.438C184.638 187.803 184.552 188.153 184.42 188.487C184.291 188.815 184.114 189.207 183.889 189.664L183.695 190.061L185.845 189.178L186.11 189.822L182.813 191.176L182.582 190.613L182.898 189.992ZM184.974 185.414L184.685 184.708L186.095 184.129L188.126 189.073L187.346 189.394L185.605 185.155L184.974 185.414ZM188.384 184.188L188.952 185.572L190.58 184.903L190.839 185.534L189.211 186.202L189.804 187.647L191.636 186.895L191.895 187.526L189.29 188.595L187.351 183.875L189.956 182.805L190.215 183.436L188.384 184.188ZM192.451 181.788C192.953 181.582 193.431 181.499 193.886 181.539C194.344 181.573 194.749 181.729 195.101 182.008C195.456 182.279 195.732 182.655 195.929 183.134C196.125 183.614 196.192 184.072 196.129 184.51C196.071 184.947 195.89 185.338 195.588 185.684C195.289 186.023 194.889 186.296 194.387 186.502L192.847 187.135L190.911 182.421L192.451 181.788ZM194.128 185.871C194.679 185.645 195.041 185.322 195.212 184.903C195.384 184.484 195.358 184.003 195.135 183.46C194.91 182.913 194.588 182.546 194.168 182.359C193.747 182.173 193.262 182.192 192.71 182.419L191.943 182.734L193.361 186.186L194.128 185.871ZM198.494 179.306L198.753 179.937L196.752 180.759L197.323 182.149L198.883 181.509L199.142 182.139L197.582 182.78L198.429 184.842L197.656 185.16L195.72 180.446L198.494 179.306ZM199.917 181.465C199.727 181.003 199.664 180.546 199.726 180.093C199.792 179.637 199.967 179.232 200.25 178.879C200.535 178.518 200.897 178.248 201.336 178.068C201.838 177.862 202.334 177.803 202.825 177.892C203.319 177.975 203.747 178.206 204.109 178.586L203.18 178.967C202.955 178.769 202.71 178.653 202.442 178.62C202.175 178.587 201.899 178.629 201.614 178.746C201.302 178.874 201.053 179.059 200.866 179.299C200.68 179.54 200.57 179.82 200.538 180.14C200.51 180.457 200.567 180.791 200.71 181.139C200.853 181.487 201.047 181.764 201.29 181.971C201.538 182.176 201.814 182.3 202.117 182.345C202.419 182.384 202.726 182.34 203.038 182.212C203.323 182.095 203.549 181.931 203.715 181.72C203.882 181.509 203.976 181.254 203.996 180.955L204.925 180.573C204.934 181.098 204.792 181.563 204.499 181.969C204.211 182.373 203.816 182.678 203.314 182.884C202.87 183.066 202.424 183.13 201.974 183.077C201.522 183.019 201.113 182.852 200.745 182.575C200.382 182.296 200.106 181.926 199.917 181.465Z" fill="#F8FAFC"/>
<path d="M209.125 179.019L208.831 179.139C208.675 179.203 208.5 179.203 208.345 179.138C208.189 179.073 208.066 178.949 208.001 178.793L206.914 176.146C206.85 175.99 206.851 175.815 206.916 175.659C206.981 175.504 207.105 175.38 207.261 175.316L209.908 174.229C210.064 174.165 210.239 174.166 210.395 174.231C210.55 174.296 210.674 174.42 210.738 174.576L210.858 174.87M210.165 176.529L212.812 175.442C213.137 175.309 213.508 175.464 213.642 175.789L214.729 178.436C214.862 178.761 214.707 179.132 214.382 179.266L211.735 180.353C211.411 180.486 211.039 180.331 210.906 180.006L209.819 177.359C209.685 177.034 209.84 176.663 210.165 176.529Z" stroke="#94A3B8" stroke-width="0.635867" stroke-linecap="round" stroke-linejoin="round"/>
</g>
</g>
<path d="M36.7582 80.4391C36.2026 81.8374 36.8857 83.4214 38.2839 83.977C39.6822 84.5327 41.2662 83.8496 41.8218 82.4514C42.3775 81.0531 41.6944 79.4691 40.2961 78.9135C38.8979 78.3578 37.3139 79.0409 36.7582 80.4391ZM177.467 136.355C176.911 137.753 177.594 139.337 178.992 139.893C180.391 140.449 181.975 139.766 182.53 138.367C183.086 136.969 182.403 135.385 181.005 134.829C179.606 134.274 178.022 134.957 177.467 136.355ZM39.1014 81.92L179.81 137.836L180.187 136.887L39.4787 80.9705L39.1014 81.92Z" fill="white"/>
<g filter="url(#filter0_d_374_200)">
<rect x="174.056" y="140.364" width="8.85423" height="8.85423" rx="1.36219" transform="rotate(21.6723 174.056 140.364)" fill="#F15F79"/>
<rect x="174.246" y="140.806" width="8.17314" height="8.17314" rx="1.02164" transform="rotate(21.6723 174.246 140.806)" stroke="white" stroke-width="0.681095"/>
</g>
<g filter="url(#filter1_d_374_200)">
<rect x="33.542" y="84.5252" width="8.85423" height="8.85423" rx="1.36219" transform="rotate(21.6723 33.542 84.5252)" fill="#FD8A06"/>
<rect x="33.7327" y="84.9674" width="8.17314" height="8.17314" rx="1.02164" transform="rotate(21.6723 33.7327 84.9674)" stroke="white" stroke-width="0.681095"/>
</g>
<circle cx="179.964" cy="137.216" r="3.06493" transform="rotate(-22.3277 179.964 137.216)" fill="#1565DD"/>
<path d="M180.033 135.782C179.516 136.101 179.645 136.887 180.237 137.025L189.065 139.077C189.677 139.219 190.139 138.529 189.774 138.018L187.927 135.433C187.804 135.261 187.769 135.041 187.83 134.839L188.756 131.8C188.939 131.2 188.281 130.692 187.747 131.022L180.033 135.782Z" fill="#212121" stroke="#212121" stroke-width="1.36219" stroke-linecap="round" stroke-linejoin="round"/>
<defs>
<filter id="filter0_d_374_200" x="166.793" y="136.371" width="28.2833" height="28.2831" filterUnits="userSpaceOnUse" color-interpolation-filters="sRGB">
<feFlood flood-opacity="0" result="BackgroundImageFix"/>
<feColorMatrix in="SourceAlpha" type="matrix" values="0 0 0 0 0 0 0 0 0 0 0 0 0 0 0 0 0 0 127 0" result="hardAlpha"/>
<feOffset dx="4.39943" dy="4.39943"/>
<feGaussianBlur stdDeviation="4.39943"/>
<feComposite in2="hardAlpha" operator="out"/>
<feColorMatrix type="matrix" values="0 0 0 0 0 0 0 0 0 0 0 0 0 0 0 0 0 0 0.25 0"/>
<feBlend mode="normal" in2="BackgroundImageFix" result="effect1_dropShadow_374_200"/>
<feBlend mode="normal" in="SourceGraphic" in2="effect1_dropShadow_374_200" result="shape"/>
</filter>
<filter id="filter1_d_374_200" x="26.2793" y="80.5322" width="28.2833" height="28.2831" filterUnits="userSpaceOnUse" color-interpolation-filters="sRGB">
<feFlood flood-opacity="0" result="BackgroundImageFix"/>
<feColorMatrix in="SourceAlpha" type="matrix" values="0 0 0 0 0 0 0 0 0 0 0 0 0 0 0 0 0 0 127 0" result="hardAlpha"/>
<feOffset dx="4.39943" dy="4.39943"/>
<feGaussianBlur stdDeviation="4.39943"/>
<feComposite in2="hardAlpha" operator="out"/>
<feColorMatrix type="matrix" values="0 0 0 0 0 0 0 0 0 0 0 0 0 0 0 0 0 0 0.25 0"/>
<feBlend mode="normal" in2="BackgroundImageFix" result="effect1_dropShadow_374_200"/>
<feBlend mode="normal" in="SourceGraphic" in2="effect1_dropShadow_374_200" result="shape"/>
</filter>
<linearGradient id="paint0_linear_374_200" x1="6.01953" y1="69.932" x2="227.83" y2="120.092" gradientUnits="userSpaceOnUse">
<stop stop-color="#FE8C00"/>
<stop offset="1" stop-color="#F05D80"/>
</linearGradient>
<clipPath id="clip0_374_200">
<rect y="66.8555" width="175.98" height="200.911" rx="14.665" transform="rotate(-22.3277 0 66.8555)" fill="white"/>
</clipPath>
<clipPath id="clip1_374_200">
<rect width="64.2907" height="16.5326" fill="white" transform="translate(76.8721 223.15) rotate(-22.3277)"/>
</clipPath>
<clipPath id="clip2_374_200">
<rect width="61.4905" height="16.5325" fill="white" transform="translate(153.742 191.797) rotate(-22.3277)"/>
</clipPath>
</defs>
</svg>
