<svg width="171" height="30" viewBox="0 0 171 30" fill="none" xmlns="http://www.w3.org/2000/svg">
<path d="M56.56 12.4C56.3067 11.9333 55.94 11.58 55.46 11.34C54.9933 11.0867 54.44 10.96 53.8 10.96C52.6933 10.96 51.8067 11.3267 51.14 12.06C50.4733 12.78 50.14 13.7467 50.14 14.96C50.14 16.2533 50.4867 17.2667 51.18 18C51.8867 18.72 52.8533 19.08 54.08 19.08C54.92 19.08 55.6267 18.8667 56.2 18.44C56.7867 18.0133 57.2133 17.4 57.48 16.6H53.14V14.08H60.58V17.26C60.3267 18.1133 59.8933 18.9067 59.28 19.64C58.68 20.3733 57.9133 20.9667 56.98 21.42C56.0467 21.8733 54.9933 22.1 53.82 22.1C52.4333 22.1 51.1933 21.8 50.1 21.2C49.02 20.5867 48.1733 19.74 47.56 18.66C46.96 17.58 46.66 16.3467 46.66 14.96C46.66 13.5733 46.96 12.34 47.56 11.26C48.1733 10.1667 49.02 9.32 50.1 8.72C51.18 8.10667 52.4133 7.8 53.8 7.8C55.48 7.8 56.8933 8.20667 58.04 9.02C59.2 9.83333 59.9667 10.96 60.34 12.4H56.56ZM65.8944 12.7C66.2944 12.0867 66.7944 11.6067 67.3944 11.26C67.9944 10.9 68.661 10.72 69.3944 10.72V14.34H68.4544C67.601 14.34 66.961 14.5267 66.5344 14.9C66.1077 15.26 65.8944 15.9 65.8944 16.82V22H62.4744V10.84H65.8944V12.7ZM72.7491 9.68C72.1491 9.68 71.6557 9.50667 71.2691 9.16C70.8957 8.8 70.7091 8.36 70.7091 7.84C70.7091 7.30667 70.8957 6.86667 71.2691 6.52C71.6557 6.16 72.1491 5.98 72.7491 5.98C73.3357 5.98 73.8157 6.16 74.1891 6.52C74.5757 6.86667 74.7691 7.30667 74.7691 7.84C74.7691 8.36 74.5757 8.8 74.1891 9.16C73.8157 9.50667 73.3357 9.68 72.7491 9.68ZM74.4491 10.84V22H71.0291V10.84H74.4491ZM76.2475 16.4C76.2475 15.2533 76.4608 14.2467 76.8875 13.38C77.3275 12.5133 77.9208 11.8467 78.6675 11.38C79.4142 10.9133 80.2475 10.68 81.1675 10.68C81.9008 10.68 82.5675 10.8333 83.1675 11.14C83.7808 11.4467 84.2608 11.86 84.6075 12.38V7.2H88.0275V22H84.6075V20.4C84.2875 20.9333 83.8275 21.36 83.2275 21.68C82.6408 22 81.9542 22.16 81.1675 22.16C80.2475 22.16 79.4142 21.9267 78.6675 21.46C77.9208 20.98 77.3275 20.3067 76.8875 19.44C76.4608 18.56 76.2475 17.5467 76.2475 16.4ZM84.6075 16.42C84.6075 15.5667 84.3675 14.8933 83.8875 14.4C83.4208 13.9067 82.8475 13.66 82.1675 13.66C81.4875 13.66 80.9075 13.9067 80.4275 14.4C79.9608 14.88 79.7275 15.5467 79.7275 16.4C79.7275 17.2533 79.9608 17.9333 80.4275 18.44C80.9075 18.9333 81.4875 19.18 82.1675 19.18C82.8475 19.18 83.4208 18.9333 83.8875 18.44C84.3675 17.9467 84.6075 17.2733 84.6075 16.42ZM92.2217 9.68C91.6217 9.68 91.1284 9.50667 90.7417 9.16C90.3684 8.8 90.1817 8.36 90.1817 7.84C90.1817 7.30667 90.3684 6.86667 90.7417 6.52C91.1284 6.16 91.6217 5.98 92.2217 5.98C92.8084 5.98 93.2884 6.16 93.6617 6.52C94.0484 6.86667 94.2417 7.30667 94.2417 7.84C94.2417 8.36 94.0484 8.8 93.6617 9.16C93.2884 9.50667 92.8084 9.68 92.2217 9.68ZM93.9217 10.84V22H90.5017V10.84H93.9217ZM106.92 16.24C106.92 16.56 106.9 16.8933 106.86 17.24H99.1202C99.1735 17.9333 99.3935 18.4667 99.7802 18.84C100.18 19.2 100.667 19.38 101.24 19.38C102.093 19.38 102.687 19.02 103.02 18.3H106.66C106.473 19.0333 106.133 19.6933 105.64 20.28C105.16 20.8667 104.553 21.3267 103.82 21.66C103.087 21.9933 102.267 22.16 101.36 22.16C100.267 22.16 99.2935 21.9267 98.4402 21.46C97.5868 20.9933 96.9202 20.3267 96.4402 19.46C95.9602 18.5933 95.7202 17.58 95.7202 16.42C95.7202 15.26 95.9535 14.2467 96.4202 13.38C96.9002 12.5133 97.5668 11.8467 98.4202 11.38C99.2735 10.9133 100.253 10.68 101.36 10.68C102.44 10.68 103.4 10.9067 104.24 11.36C105.08 11.8133 105.733 12.46 106.2 13.3C106.68 14.14 106.92 15.12 106.92 16.24ZM103.42 15.34C103.42 14.7533 103.22 14.2867 102.82 13.94C102.42 13.5933 101.92 13.42 101.32 13.42C100.747 13.42 100.26 13.5867 99.8602 13.92C99.4735 14.2533 99.2335 14.7267 99.1402 15.34H103.42ZM115.524 10.72C116.831 10.72 117.871 11.1467 118.644 12C119.431 12.84 119.824 14 119.824 15.48V22H116.424V15.94C116.424 15.1933 116.231 14.6133 115.844 14.2C115.458 13.7867 114.938 13.58 114.284 13.58C113.631 13.58 113.111 13.7867 112.724 14.2C112.338 14.6133 112.144 15.1933 112.144 15.94V22H108.724V10.84H112.144V12.32C112.491 11.8267 112.958 11.44 113.544 11.16C114.131 10.8667 114.791 10.72 115.524 10.72ZM128.421 19.1V22H126.681C125.441 22 124.474 21.7 123.781 21.1C123.088 20.4867 122.741 19.4933 122.741 18.12V13.68H121.381V10.84H122.741V8.12H126.161V10.84H128.401V13.68H126.161V18.16C126.161 18.4933 126.241 18.7333 126.401 18.88C126.561 19.0267 126.828 19.1 127.201 19.1H128.421ZM142.486 7.96V22H139.066V16.22H133.746V22H130.326V7.96H133.746V13.46H139.066V7.96H142.486ZM155.975 10.84V22H152.555V20.48C152.208 20.9733 151.735 21.3733 151.135 21.68C150.548 21.9733 149.895 22.12 149.175 22.12C148.322 22.12 147.568 21.9333 146.915 21.56C146.262 21.1733 145.755 20.62 145.395 19.9C145.035 19.18 144.855 18.3333 144.855 17.36V10.84H148.255V16.9C148.255 17.6467 148.448 18.2267 148.835 18.64C149.222 19.0533 149.742 19.26 150.395 19.26C151.062 19.26 151.588 19.0533 151.975 18.64C152.362 18.2267 152.555 17.6467 152.555 16.9V10.84H155.975ZM161.851 12.42C162.171 11.9 162.631 11.48 163.231 11.16C163.831 10.84 164.518 10.68 165.291 10.68C166.211 10.68 167.045 10.9133 167.791 11.38C168.538 11.8467 169.125 12.5133 169.551 13.38C169.991 14.2467 170.211 15.2533 170.211 16.4C170.211 17.5467 169.991 18.56 169.551 19.44C169.125 20.3067 168.538 20.98 167.791 21.46C167.045 21.9267 166.211 22.16 165.291 22.16C164.505 22.16 163.818 22.0067 163.231 21.7C162.645 21.38 162.185 20.96 161.851 20.44V22H158.431V7.2H161.851V12.42ZM166.731 16.4C166.731 15.5467 166.491 14.88 166.011 14.4C165.545 13.9067 164.965 13.66 164.271 13.66C163.591 13.66 163.011 13.9067 162.531 14.4C162.065 14.8933 161.831 15.5667 161.831 16.42C161.831 17.2733 162.065 17.9467 162.531 18.44C163.011 18.9333 163.591 19.18 164.271 19.18C164.951 19.18 165.531 18.9333 166.011 18.44C166.491 17.9333 166.731 17.2533 166.731 16.4Z" fill="white"/>
<rect width="30" height="30" rx="8" fill="url(#paint0_linear_368_203)"/>
<defs>
<linearGradient id="paint0_linear_368_203" x1="0" y1="0" x2="30" y2="30" gradientUnits="userSpaceOnUse">
<stop stop-color="#FE8C00"/>
<stop offset="1" stop-color="#F3748B"/>
</linearGradient>
</defs>
</svg>
