<svg width="221" height="234" viewBox="0 0 221 234" fill="none" xmlns="http://www.w3.org/2000/svg">
<g clip-path="url(#clip0_168_102)">
<rect x="0.179199" y="62.001" width="162.177" height="185.153" rx="13.5148" transform="rotate(-22.3277 0.179199 62.001)" fill="#22222A"/>
<path d="M9.83401 74.8375C7.56554 69.314 10.2043 62.9973 15.7278 60.7288L138.243 10.4126C143.766 8.14412 150.083 10.7828 152.351 16.3064L203.438 140.697L60.9204 199.228L9.83401 74.8375Z" fill="url(#paint0_linear_168_102)"/>
<g clip-path="url(#clip1_168_102)">
<rect x="71.9126" y="208.205" width="10.5479" height="10.5479" rx="2.34397" transform="rotate(-22.3277 71.9126 208.205)" fill="#FD8A06"/>
<path d="M93.1179 203.718L93.3307 204.894L94.1558 204.555L94.4126 205.18L93.4562 205.573L93.6811 206.832L92.9998 207.112L92.7749 205.853L91.5497 206.356L91.7746 207.615L91.0933 207.895L90.8684 206.636L89.8995 207.034L89.6428 206.409L90.7429 205.957L90.5301 204.781L89.5675 205.176L89.3108 204.551L90.4046 204.102L90.1812 202.864L90.8625 202.584L91.086 203.822L92.3111 203.319L92.0877 202.081L92.769 201.801L92.9925 203.039L93.8238 202.697L94.0805 203.322L93.1179 203.718ZM92.4366 203.998L91.2114 204.501L91.4243 205.677L92.6494 205.174L92.4366 203.998ZM94.9671 203.755C94.7925 203.329 94.7339 202.908 94.7911 202.49C94.8525 202.07 95.0135 201.697 95.274 201.371C95.537 201.039 95.8706 200.79 96.2748 200.624C96.7373 200.434 97.1949 200.38 97.6474 200.462C98.1023 200.538 98.4967 200.751 98.8303 201.101L97.974 201.453C97.7673 201.27 97.5409 201.163 97.2947 201.133C97.0484 201.103 96.794 201.141 96.5315 201.249C96.244 201.367 96.0142 201.537 95.8422 201.759C95.6703 201.98 95.5693 202.239 95.5394 202.533C95.5137 202.826 95.5667 203.133 95.6984 203.454C95.8302 203.775 96.0083 204.031 96.2325 204.221C96.461 204.41 96.7151 204.524 96.9949 204.565C97.273 204.602 97.5558 204.561 97.8433 204.443C98.1059 204.336 98.314 204.184 98.4678 203.99C98.6217 203.795 98.7078 203.56 98.7261 203.285L99.5825 202.933C99.5911 203.416 99.4604 203.845 99.1902 204.219C98.9243 204.591 98.56 204.872 98.0975 205.062C97.6891 205.23 97.2776 205.289 96.8631 205.24C96.4468 205.187 96.0693 205.033 95.7307 204.778C95.3962 204.521 95.1417 204.18 94.9671 203.755ZM99.8813 201.554C99.5852 200.833 99.475 200.221 99.5507 199.717C99.6288 199.208 99.9659 198.831 100.562 198.586C101.158 198.341 101.66 198.373 102.07 198.683C102.482 198.986 102.836 199.498 103.132 200.219C103.431 200.948 103.543 201.569 103.466 202.083C103.392 202.591 103.057 202.967 102.461 203.212C101.866 203.456 101.361 203.425 100.947 203.117C100.536 202.804 100.181 202.283 99.8813 201.554ZM102.432 200.506C102.293 200.169 102.153 199.893 102.011 199.678C101.874 199.462 101.708 199.308 101.515 199.217C101.32 199.122 101.091 199.128 100.829 199.236C100.566 199.344 100.399 199.5 100.327 199.705C100.254 199.906 100.242 200.132 100.292 200.384C100.346 200.635 100.443 200.929 100.581 201.266C100.725 201.616 100.867 201.901 101.006 202.122C101.145 202.342 101.311 202.498 101.505 202.589C101.702 202.678 101.932 202.669 102.194 202.561C102.457 202.454 102.625 202.299 102.698 202.099C102.776 201.896 102.787 201.668 102.731 201.413C102.675 201.159 102.575 200.856 102.432 200.506ZM103.806 200.124C103.632 199.699 103.573 199.278 103.63 198.86C103.691 198.44 103.852 198.067 104.113 197.741C104.376 197.409 104.71 197.16 105.114 196.994C105.576 196.804 106.034 196.75 106.486 196.832C106.941 196.908 107.336 197.121 107.669 197.471L106.813 197.823C106.606 197.64 106.38 197.533 106.134 197.503C105.887 197.473 105.633 197.511 105.37 197.619C105.083 197.737 104.853 197.907 104.681 198.129C104.509 198.35 104.408 198.608 104.378 198.903C104.353 199.196 104.406 199.503 104.537 199.824C104.669 200.145 104.847 200.401 105.072 200.591C105.3 200.78 105.554 200.894 105.834 200.935C106.112 200.972 106.395 200.931 106.682 200.813C106.945 200.705 107.153 200.554 107.307 200.36C107.461 200.165 107.547 199.93 107.565 199.654L108.421 199.303C108.43 199.786 108.299 200.215 108.029 200.589C107.763 200.961 107.399 201.242 106.936 201.432C106.528 201.6 106.117 201.659 105.702 201.61C105.286 201.557 104.908 201.403 104.57 201.148C104.235 200.891 103.981 200.549 103.806 200.124ZM108.72 197.924C108.424 197.203 108.314 196.59 108.39 196.087C108.468 195.578 108.805 195.201 109.401 194.956C109.997 194.711 110.499 194.743 110.909 195.052C111.321 195.356 111.675 195.868 111.971 196.589C112.27 197.318 112.382 197.939 112.305 198.453C112.231 198.96 111.896 199.337 111.3 199.581C110.705 199.826 110.2 199.795 109.786 199.487C109.375 199.174 109.02 198.653 108.72 197.924ZM111.271 196.876C111.132 196.539 110.992 196.263 110.85 196.048C110.713 195.832 110.547 195.678 110.354 195.587C110.159 195.492 109.93 195.498 109.668 195.606C109.405 195.714 109.238 195.87 109.166 196.075C109.093 196.275 109.081 196.502 109.131 196.754C109.185 197.004 109.282 197.299 109.42 197.636C109.564 197.986 109.706 198.271 109.845 198.492C109.984 198.712 110.15 198.868 110.344 198.959C110.541 199.048 110.771 199.039 111.033 198.931C111.296 198.823 111.464 198.669 111.537 198.469C111.615 198.266 111.626 198.038 111.57 197.783C111.514 197.529 111.414 197.226 111.271 196.876ZM116.033 196.615L114.214 197.362L114.266 198.378L113.522 198.684L113.292 193.694L114.117 193.355L117.46 197.066L116.71 197.374L116.033 196.615ZM115.594 196.116L114.059 194.387L114.175 196.699L115.594 196.116ZM120.391 194.825L118.573 195.572L118.625 196.588L117.881 196.894L117.65 191.904L118.475 191.565L121.819 195.276L121.069 195.584L120.391 194.825ZM119.953 194.326L118.417 192.597L118.534 194.909L119.953 194.326Z" fill="#F8FAFC"/>
<path d="M125.283 192.938L125.012 193.049C124.868 193.108 124.707 193.108 124.564 193.048C124.42 192.988 124.306 192.873 124.247 192.73L123.246 190.29C123.187 190.147 123.187 189.985 123.247 189.842C123.307 189.698 123.421 189.585 123.565 189.526L126.004 188.524C126.148 188.465 126.309 188.465 126.453 188.525C126.596 188.585 126.71 188.699 126.769 188.843L126.88 189.114M126.241 190.644L128.681 189.642C128.98 189.519 129.322 189.662 129.445 189.961L130.447 192.401C130.57 192.7 130.427 193.042 130.128 193.165L127.688 194.167C127.389 194.29 127.047 194.147 126.924 193.848L125.922 191.408C125.799 191.109 125.942 190.767 126.241 190.644Z" stroke="#94A3B8" stroke-width="0.585993" stroke-linecap="round" stroke-linejoin="round"/>
</g>
<g clip-path="url(#clip2_168_102)">
<rect x="142.753" y="179.311" width="10.5479" height="10.5479" rx="2.34397" transform="rotate(-22.3277 142.753 179.311)" fill="#F05F7A"/>
<path d="M165.016 174.389L165.229 175.566L166.054 175.227L166.311 175.852L165.354 176.244L165.579 177.504L164.898 177.783L164.673 176.524L163.448 177.027L163.673 178.287L162.992 178.566L162.767 177.307L161.798 177.705L161.541 177.08L162.641 176.628L162.428 175.452L161.466 175.847L161.209 175.222L162.303 174.773L162.079 173.535L162.761 173.255L162.984 174.493L164.209 173.99L163.986 172.752L164.667 172.472L164.891 173.71L165.722 173.369L165.979 173.994L165.016 174.389ZM164.335 174.669L163.11 175.172L163.323 176.348L164.548 175.845L164.335 174.669ZM167.901 175.418C168.159 174.908 168.357 174.495 168.496 174.18C168.637 173.859 168.735 173.546 168.79 173.241C168.844 172.936 168.822 172.663 168.723 172.421C168.62 172.171 168.479 172 168.3 171.908C168.126 171.814 167.911 171.82 167.657 171.924C167.411 172.025 167.252 172.183 167.179 172.398C167.109 172.607 167.124 172.844 167.224 173.11L166.536 173.392C166.353 172.912 166.346 172.492 166.514 172.13C166.685 171.763 166.981 171.493 167.402 171.32C167.856 171.134 168.261 171.113 168.618 171.259C168.979 171.403 169.245 171.683 169.417 172.1C169.54 172.4 169.582 172.721 169.542 173.064C169.505 173.4 169.426 173.723 169.304 174.031C169.184 174.333 169.021 174.695 168.814 175.116L168.636 175.481L170.617 174.668L170.861 175.261L167.823 176.509L167.61 175.99L167.901 175.418ZM169.815 171.199L169.548 170.548L170.848 170.015L172.719 174.571L172 174.867L170.396 170.96L169.815 171.199ZM172.956 170.069L173.48 171.344L174.98 170.728L175.219 171.309L173.719 171.925L174.266 173.257L175.953 172.564L176.192 173.145L173.792 174.131L172.005 169.78L174.405 168.794L174.644 169.376L172.956 170.069ZM176.705 167.857C177.167 167.668 177.608 167.591 178.028 167.628C178.45 167.66 178.823 167.803 179.147 168.06C179.474 168.31 179.728 168.656 179.91 169.098C180.091 169.54 180.153 169.962 180.094 170.366C180.04 170.768 179.874 171.129 179.596 171.447C179.32 171.76 178.951 172.012 178.489 172.202L177.07 172.785L175.286 168.44L176.705 167.857ZM178.25 171.62C178.758 171.412 179.092 171.114 179.249 170.728C179.407 170.342 179.384 169.898 179.178 169.398C178.971 168.894 178.674 168.556 178.287 168.384C177.9 168.212 177.452 168.23 176.943 168.439L176.237 168.729L177.544 171.911L178.25 171.62ZM182.274 165.57L182.513 166.152L180.669 166.909L181.195 168.19L182.633 167.6L182.871 168.181L181.434 168.772L182.214 170.672L181.502 170.964L179.717 166.62L182.274 165.57ZM183.585 167.559C183.41 167.134 183.352 166.713 183.409 166.295C183.47 165.875 183.631 165.502 183.892 165.176C184.155 164.844 184.488 164.595 184.893 164.429C185.355 164.239 185.813 164.185 186.265 164.267C186.72 164.343 187.115 164.556 187.448 164.906L186.592 165.258C186.385 165.075 186.159 164.968 185.913 164.938C185.666 164.907 185.412 164.946 185.149 165.054C184.862 165.172 184.632 165.342 184.46 165.564C184.288 165.785 184.187 166.043 184.157 166.338C184.132 166.631 184.185 166.938 184.316 167.259C184.448 167.58 184.626 167.835 184.85 168.026C185.079 168.214 185.333 168.329 185.613 168.37C185.891 168.407 186.174 168.366 186.461 168.248C186.724 168.14 186.932 167.989 187.086 167.794C187.24 167.6 187.326 167.365 187.344 167.089L188.2 166.738C188.209 167.221 188.078 167.65 187.808 168.024C187.542 168.396 187.178 168.677 186.715 168.867C186.307 169.035 185.895 169.094 185.481 169.045C185.065 168.992 184.687 168.838 184.349 168.583C184.014 168.325 183.76 167.984 183.585 167.559Z" fill="#F8FAFC"/>
<path d="M192.449 165.553L192.178 165.664C192.034 165.723 191.872 165.723 191.729 165.663C191.586 165.603 191.472 165.489 191.413 165.345L190.411 162.906C190.352 162.762 190.353 162.6 190.412 162.457C190.472 162.314 190.587 162.2 190.731 162.141L193.17 161.139C193.314 161.08 193.475 161.081 193.618 161.14C193.762 161.2 193.875 161.315 193.934 161.459L194.046 161.73M193.407 163.259L195.846 162.257C196.146 162.134 196.488 162.277 196.611 162.577L197.613 165.016C197.736 165.315 197.593 165.658 197.293 165.78L194.854 166.782C194.555 166.905 194.212 166.762 194.089 166.463L193.087 164.024C192.965 163.724 193.108 163.382 193.407 163.259Z" stroke="#94A3B8" stroke-width="0.585993" stroke-linecap="round" stroke-linejoin="round"/>
</g>
</g>
<path d="M34.0555 74.519C33.5434 75.8076 34.1729 77.2673 35.4615 77.7794C36.7501 78.2915 38.2098 77.662 38.7219 76.3734C39.234 75.0848 38.6045 73.625 37.3159 73.113C36.0273 72.6009 34.5675 73.2304 34.0555 74.519ZM163.728 126.049C163.215 127.338 163.845 128.798 165.134 129.31C166.422 129.822 167.882 129.192 168.394 127.904C168.906 126.615 168.277 125.155 166.988 124.643C165.699 124.131 164.24 124.761 163.728 126.049ZM36.2148 75.8836L165.887 127.414L166.235 126.539L36.5625 75.0087L36.2148 75.8836Z" fill="white"/>
<g filter="url(#filter0_d_168_102)">
<rect x="160.584" y="129.744" width="8.15975" height="8.15975" rx="1.25535" transform="rotate(21.6723 160.584 129.744)" fill="#F15F79"/>
<rect x="160.76" y="130.151" width="7.53208" height="7.53208" rx="0.941509" transform="rotate(21.6723 160.76 130.151)" stroke="white" stroke-width="0.627673"/>
</g>
<g filter="url(#filter1_d_168_102)">
<rect x="31.0908" y="78.2845" width="8.15975" height="8.15975" rx="1.25535" transform="rotate(21.6723 31.0908 78.2845)" fill="#FD8A06"/>
<rect x="31.2666" y="78.692" width="7.53208" height="7.53208" rx="0.941509" transform="rotate(21.6723 31.2666 78.692)" stroke="white" stroke-width="0.627673"/>
</g>
<circle cx="166.028" cy="126.843" r="2.82453" transform="rotate(-22.3277 166.028 126.843)" fill="#1565DD"/>
<path d="M166.091 125.521C165.615 125.816 165.733 126.54 166.279 126.667L174.415 128.558C174.978 128.689 175.404 128.052 175.068 127.582L173.366 125.2C173.253 125.041 173.22 124.839 173.277 124.652L174.13 121.852C174.298 121.298 173.692 120.831 173.2 121.135L166.091 125.521Z" fill="#22222A" stroke="#22222A" stroke-width="1.25535" stroke-linecap="round" stroke-linejoin="round"/>
<defs>
<filter id="filter0_d_168_102" x="153.891" y="126.064" width="26.0646" height="26.0647" filterUnits="userSpaceOnUse" color-interpolation-filters="sRGB">
<feFlood flood-opacity="0" result="BackgroundImageFix"/>
<feColorMatrix in="SourceAlpha" type="matrix" values="0 0 0 0 0 0 0 0 0 0 0 0 0 0 0 0 0 0 127 0" result="hardAlpha"/>
<feOffset dx="4.05436" dy="4.05436"/>
<feGaussianBlur stdDeviation="4.05436"/>
<feComposite in2="hardAlpha" operator="out"/>
<feColorMatrix type="matrix" values="0 0 0 0 0 0 0 0 0 0 0 0 0 0 0 0 0 0 0.25 0"/>
<feBlend mode="normal" in2="BackgroundImageFix" result="effect1_dropShadow_168_102"/>
<feBlend mode="normal" in="SourceGraphic" in2="effect1_dropShadow_168_102" result="shape"/>
</filter>
<filter id="filter1_d_168_102" x="24.3978" y="74.6046" width="26.0646" height="26.0647" filterUnits="userSpaceOnUse" color-interpolation-filters="sRGB">
<feFlood flood-opacity="0" result="BackgroundImageFix"/>
<feColorMatrix in="SourceAlpha" type="matrix" values="0 0 0 0 0 0 0 0 0 0 0 0 0 0 0 0 0 0 127 0" result="hardAlpha"/>
<feOffset dx="4.05436" dy="4.05436"/>
<feGaussianBlur stdDeviation="4.05436"/>
<feComposite in2="hardAlpha" operator="out"/>
<feColorMatrix type="matrix" values="0 0 0 0 0 0 0 0 0 0 0 0 0 0 0 0 0 0 0.25 0"/>
<feBlend mode="normal" in2="BackgroundImageFix" result="effect1_dropShadow_168_102"/>
<feBlend mode="normal" in="SourceGraphic" in2="effect1_dropShadow_168_102" result="shape"/>
</filter>
<linearGradient id="paint0_linear_168_102" x1="5.72656" y1="64.8362" x2="210.139" y2="111.062" gradientUnits="userSpaceOnUse">
<stop stop-color="#FE8C00"/>
<stop offset="1" stop-color="#F05D80"/>
</linearGradient>
<clipPath id="clip0_168_102">
<rect x="0.179199" y="62.001" width="162.177" height="185.153" rx="13.5148" transform="rotate(-22.3277 0.179199 62.001)" fill="white"/>
</clipPath>
<clipPath id="clip1_168_102">
<rect width="60.1501" height="15.2358" fill="white" transform="translate(71.022 206.037) rotate(-22.3277)"/>
</clipPath>
<clipPath id="clip2_168_102">
<rect width="56.1771" height="15.2359" fill="white" transform="translate(141.863 177.143) rotate(-22.3277)"/>
</clipPath>
</defs>
</svg>
